<svg id="Layer_1" data-name="Layer 1" xmlns="http://www.w3.org/2000/svg" viewBox="0 0 61.94 68.38"><defs><style>.cls-1{fill:#505050;}.cls-1,.cls-2{stroke:#002050;stroke-miterlimit:10;stroke-width:2px;}.cls-2{fill:#0064b5;}.cls-3{font-size:5.17px;font-family:SegoeUI-Bold, Segoe UI;font-weight:700;}.cls-10,.cls-3,.cls-7,.cls-8{fill:#fff;}.cls-4{letter-spacing:0em;}.cls-5{letter-spacing:-0.01em;}.cls-6{letter-spacing:0.02em;}.cls-8{font-size:3.93px;font-family:SegoeUI, Segoe UI;letter-spacing:0.18em;}.cls-9{letter-spacing:0.14em;}.cls-10{stroke:#505050;stroke-width:1.4px;}.cls-11{fill:#3c3c3c;}</style></defs><path class="cls-1" d="M121.87,77.78V91.6a166.8,166.8,0,0,0-43.74,0V77.78a4.29,4.29,0,0,1,2.62-4L98,67.65a5.83,5.83,0,0,1,3.91,0l17.3,6.11A4.29,4.29,0,0,1,121.87,77.78Z" transform="translate(-69.03 -66.31)"/><path class="cls-2" d="M121.87,110.67v.5l-.06.44c-1,7.67-3.92,10.53-7.82,13.56a56.52,56.52,0,0,1-14,8.43,56.16,56.16,0,0,1-14-8.43c-3.9-3-6.86-5.89-7.83-13.56,0-.14,0-.29-.05-.44v-.49A149.46,149.46,0,0,1,121.87,110.67Z" transform="translate(-69.03 -66.31)"/><text class="cls-3" transform="translate(20.09 13.79) scale(0.93 1)">Mic<tspan class="cls-4" x="8.9" y="0">r</tspan><tspan x="10.94" y="0">os</tspan><tspan class="cls-5" x="16.37" y="0">o</tspan><tspan class="cls-6" x="19.45" y="0">f</tspan><tspan x="21.53" y="0">t</tspan></text><path class="cls-7" d="M94.5,116.27q-.8.08-1.59.18c-.12-1-.25-2-.38-3,.54-.07,1.07-.13,1.61-.18l0,.42-1.1.12.1.86,1-.11,0,.42-1,.11.1.89,1.13-.12Z" transform="translate(-69.03 -66.31)"/><path class="cls-7" d="M97.42,116.05l-.56,0L96.2,115l-.07-.14h0a1.26,1.26,0,0,1-.05.15c-.18.38-.35.77-.52,1.15l-.57,0c.27-.53.54-1.07.82-1.6-.33-.48-.67-1-1-1.43l.6,0c.21.32.41.65.61,1a1.28,1.28,0,0,1,.11.2h0a1,1,0,0,1,.09-.22c.16-.35.32-.7.49-1l.56,0c-.29.51-.56,1-.83,1.55C96.77,115.06,97.1,115.56,97.42,116.05Z" transform="translate(-69.03 -66.31)"/><path class="cls-7" d="M98.49,114.91l0,1.1-.47,0c0-1-.07-2-.11-3l.91,0a1.16,1.16,0,0,1,.8.23.85.85,0,0,1,.29.69,1,1,0,0,1-.29.72,1.1,1.1,0,0,1-.77.3Zm0-1.52,0,1.11h.31a.74.74,0,0,0,.48-.16.54.54,0,0,0,.15-.43c0-.35-.21-.53-.61-.52Z" transform="translate(-69.03 -66.31)"/><path class="cls-7" d="M102.27,116c-.53,0-1.06,0-1.6,0l0-3c.54,0,1.07,0,1.61,0v.43l-1.11,0,0,.86,1,0c0,.14,0,.28,0,.42l-1,0c0,.3,0,.6,0,.9q.57,0,1.14,0Z" transform="translate(-69.03 -66.31)"/><path class="cls-7" d="M105.22,116.2l-.55,0c-.13-.29-.27-.57-.4-.85a1.8,1.8,0,0,0-.11-.2,1.71,1.71,0,0,0-.11-.14l-.13-.08a.43.43,0,0,0-.17,0h-.19l-.07,1.23-.47,0,.15-3,1,0a1.59,1.59,0,0,1,.39.08.79.79,0,0,1,.29.18.66.66,0,0,1,.19.27.81.81,0,0,1,0,.36.82.82,0,0,1-.07.29.76.76,0,0,1-.15.23.65.65,0,0,1-.21.16.94.94,0,0,1-.28.1h0a.69.69,0,0,1,.13.11l.1.12s.07.09.1.15l.1.18Zm-1.58-2.75-.06,1,.41,0a.5.5,0,0,0,.21,0,.56.56,0,0,0,.17-.09.61.61,0,0,0,.12-.16.51.51,0,0,0,.05-.22.43.43,0,0,0-.11-.35.58.58,0,0,0-.38-.14Z" transform="translate(-69.03 -66.31)"/><path class="cls-7" d="M107.84,113.85l-.85-.1c-.1.87-.19,1.73-.29,2.6l-.47,0,.27-2.6-.85-.08,0-.43c.73.07,1.47.15,2.2.24Z" transform="translate(-69.03 -66.31)"/><text class="cls-8" transform="translate(20.66 18.71) scale(0.93 1)">CE<tspan class="cls-9" x="5.83" y="0">R</tspan><tspan x="8.71" y="0">TIFIED</tspan></text><polygon class="cls-7" points="24.84 53.72 25.46 55.75 27.45 55.75 25.84 57 26.45 59.03 24.84 57.77 23.23 59.03 23.85 57 22.23 55.75 24.23 55.75 24.84 53.72"/><polygon class="cls-7" points="37.33 53.72 37.95 55.75 39.94 55.75 38.33 57 38.95 59.03 37.33 57.77 35.72 59.03 36.34 57 34.73 55.75 36.72 55.75 37.33 53.72"/><polygon class="cls-7" points="31.04 57.49 31.65 59.51 33.63 59.51 32.03 60.76 32.64 62.78 31.04 61.53 29.43 62.78 30.05 60.76 28.44 59.51 30.43 59.51 31.04 57.49"/><path class="cls-10" d="M130.23,94.54q-1.15,7.53-2.33,15.06a2.6,2.6,0,0,1-2.92,2.31c-1-.19-2.07-.36-3.11-.53a142.25,142.25,0,0,0-43.74,0c-1,.16-2.08.33-3.11.52a2.6,2.6,0,0,1-2.92-2.31q-1.17-7.53-2.33-15.06a2.89,2.89,0,0,1,2.34-3.29c2-.36,4-.67,6-1a158.61,158.61,0,0,1,43.74,0c2,.28,4,.59,6,1A2.89,2.89,0,0,1,130.23,94.54Z" transform="translate(-69.03 -66.31)"/><path class="cls-11" d="M77.68,99.07l-.55.06-.6-1.19-1.82.21c-.1.43-.19.86-.28,1.29l-.56.07c.36-1.54.74-3.07,1.12-4.61l.53-.06Q76.62,96.94,77.68,99.07Zm-1.36-1.58-.9-1.8a1.17,1.17,0,0,1-.1-.29h0a1.21,1.21,0,0,1,0,.3l-.45,2Z" transform="translate(-69.03 -66.31)"/><path class="cls-11" d="M80.91,94.41q-1.11,2-2.18,4.07l2.46-.24,0,.47L78,99v-.15q1-2,2.13-4l-2.33.23,0-.47c1-.11,2.08-.21,3.13-.3Z" transform="translate(-69.03 -66.31)"/><path class="cls-11" d="M85,96.61c.09,1.24-.41,1.9-1.5,2s-1.62-.47-1.72-1.67l-.24-2.7.52,0c.07.89.15,1.78.22,2.68s.49,1.32,1.23,1.27,1-.53,1-1.4-.14-1.82-.2-2.72l.51,0C84.88,94.85,85,95.73,85,96.61Z" transform="translate(-69.03 -66.31)"/><path class="cls-11" d="M89.29,98.14l-.6,0c-.26-.4-.52-.8-.79-1.2a2.27,2.27,0,0,0-.21-.28,1.17,1.17,0,0,0-.2-.19.62.62,0,0,0-.22-.1.72.72,0,0,0-.26,0l-.42,0,.12,1.88-.5,0c-.1-1.47-.2-2.95-.29-4.43l1.31-.08a1.81,1.81,0,0,1,.53,0,1.27,1.27,0,0,1,.44.2,1.14,1.14,0,0,1,.3.35,1.37,1.37,0,0,1,.13.52,1.16,1.16,0,0,1,0,.42,1.33,1.33,0,0,1-.17.36,1.28,1.28,0,0,1-.29.28,1.73,1.73,0,0,1-.39.18v0a.57.57,0,0,1,.19.1,1,1,0,0,1,.17.14,1.57,1.57,0,0,1,.15.19l.17.24Zm-2.83-3.81c0,.54.07,1.07.1,1.61l.69,0a.78.78,0,0,0,.35-.08.75.75,0,0,0,.28-.18.88.88,0,0,0,.17-.28,1,1,0,0,0,0-.36.67.67,0,0,0-.26-.54.92.92,0,0,0-.67-.16Z" transform="translate(-69.03 -66.31)"/><path class="cls-11" d="M92.17,98l-2.28.09c-.08-1.47-.15-3-.22-4.43l2.23-.1,0,.47-1.71.07c0,.5,0,1,.07,1.48l1.57-.07c0,.16,0,.31,0,.47l-1.57.07c0,.51,0,1,.07,1.55l1.78-.07C92.16,97.7,92.16,97.86,92.17,98Z" transform="translate(-69.03 -66.31)"/><path class="cls-11" d="M94.47,97.76v-.61a1.2,1.2,0,0,0,.25.16,1.88,1.88,0,0,0,.3.12l.32.07a1.62,1.62,0,0,0,.3,0,1.09,1.09,0,0,0,.69-.19.59.59,0,0,0,.22-.52.62.62,0,0,0-.08-.31.71.71,0,0,0-.22-.24,2,2,0,0,0-.32-.2l-.41-.21-.43-.22a2.45,2.45,0,0,1-.35-.26,1.27,1.27,0,0,1-.24-.33.94.94,0,0,1-.09-.43.93.93,0,0,1,.12-.53,1.1,1.1,0,0,1,.33-.38,1.47,1.47,0,0,1,.49-.22,2,2,0,0,1,.55-.09,2.13,2.13,0,0,1,1,.15v.58a1.64,1.64,0,0,0-1-.25,1.24,1.24,0,0,0-.33,0,.68.68,0,0,0-.3.12.7.7,0,0,0-.21.21.62.62,0,0,0-.08.31.83.83,0,0,0,.07.3,1,1,0,0,0,.19.22l.3.19.41.2.45.24a2.75,2.75,0,0,1,.37.28,1.45,1.45,0,0,1,.26.35,1,1,0,0,1,.09.44,1.1,1.1,0,0,1-.11.56,1.17,1.17,0,0,1-.33.37,1.56,1.56,0,0,1-.49.22,2.71,2.71,0,0,1-.58.07h-.25l-.31,0-.3-.08A1,1,0,0,1,94.47,97.76Z" transform="translate(-69.03 -66.31)"/><path class="cls-11" d="M99.69,97.94a1.88,1.88,0,0,1-1.48-.61,2.38,2.38,0,0,1-.57-1.62A2.44,2.44,0,0,1,98.2,94a2,2,0,0,1,1.55-.65,1.86,1.86,0,0,1,1.47.63,2.27,2.27,0,0,1,.54,1.62,2.56,2.56,0,0,1-.57,1.72A2,2,0,0,1,99.69,97.94Zm0-4.11a1.41,1.41,0,0,0-1.12.5,1.93,1.93,0,0,0-.42,1.33A2,2,0,0,0,98.6,97a1.36,1.36,0,0,0,1.09.5,1.41,1.41,0,0,0,1.12-.48,2.41,2.41,0,0,0,0-2.69A1.35,1.35,0,0,0,99.72,93.83Z" transform="translate(-69.03 -66.31)"/><path class="cls-11" d="M104.82,97.93l-2.23,0c0-1.48,0-3,0-4.44h.52l-.06,4,1.73,0Z" transform="translate(-69.03 -66.31)"/><path class="cls-11" d="M108.59,96.25c0,1.25-.63,1.85-1.72,1.81s-1.55-.65-1.52-1.85c0-.9.05-1.81.07-2.71h.52c0,.9,0,1.79-.08,2.68s.34,1.38,1.08,1.4,1.1-.4,1.14-1.28.07-1.81.1-2.72l.52,0C108.66,94.49,108.62,95.37,108.59,96.25Z" transform="translate(-69.03 -66.31)"/><path class="cls-11" d="M112.37,94.26l-1.27-.07-.21,4-.5,0,.2-4-1.27-.06,0-.47c1,0,2,.09,3,.15Z" transform="translate(-69.03 -66.31)"/><path class="cls-11" d="M113.31,98.3l-.5,0,.27-4.44.52,0C113.5,95.34,113.41,96.82,113.31,98.3Z" transform="translate(-69.03 -66.31)"/><path class="cls-11" d="M116.17,98.58a1.89,1.89,0,0,1-1.42-.73,2.33,2.33,0,0,1-.44-1.66,2.44,2.44,0,0,1,.69-1.66,1.93,1.93,0,0,1,1.6-.52,1.83,1.83,0,0,1,1.41.73,2.36,2.36,0,0,1,.42,1.67,2.58,2.58,0,0,1-.71,1.66A1.92,1.92,0,0,1,116.17,98.58Zm.36-4.11a1.44,1.44,0,0,0-1.16.42,1.94,1.94,0,0,0-.52,1.29,2,2,0,0,0,.32,1.35,1.32,1.32,0,0,0,1,.58,1.4,1.4,0,0,0,1.15-.38,2,2,0,0,0,.53-1.3A2.06,2.06,0,0,0,117.6,95,1.38,1.38,0,0,0,116.53,94.47Z" transform="translate(-69.03 -66.31)"/><path class="cls-11" d="M122.53,99.1l-.62-.07c-.61-1.25-1.23-2.5-1.87-3.75a1,1,0,0,1-.11-.29h0a3.92,3.92,0,0,1,0,.61c-.1,1.07-.21,2.13-.31,3.2l-.5,0c.14-1.48.27-3,.41-4.42l.66.06c.63,1.23,1.24,2.45,1.83,3.68a3.29,3.29,0,0,1,.15.32h0a3.45,3.45,0,0,1,0-.65l.33-3.11.51.05Z" transform="translate(-69.03 -66.31)"/><path class="cls-11" d="M123.47,99l.07-.61a1.5,1.5,0,0,0,.23.2l.28.16.31.11.29.06a1.14,1.14,0,0,0,.72-.09.64.64,0,0,0,.29-.48.66.66,0,0,0,0-.32,1.06,1.06,0,0,0-.18-.27,2.82,2.82,0,0,0-.3-.25l-.37-.25-.4-.29a3,3,0,0,1-.31-.3,1.24,1.24,0,0,1-.19-.36,1,1,0,0,1,0-.44,1,1,0,0,1,.19-.51,1,1,0,0,1,.38-.32,1.5,1.5,0,0,1,.52-.16,2.09,2.09,0,0,1,.56,0,2,2,0,0,1,.92.28l-.07.58a1.63,1.63,0,0,0-1-.4H125a1,1,0,0,0-.31.08.69.69,0,0,0-.24.18.57.57,0,0,0-.11.3.5.5,0,0,0,0,.3.69.69,0,0,0,.15.24l.27.24.38.25.41.3a2.57,2.57,0,0,1,.33.33,1.58,1.58,0,0,1,.21.38,1.12,1.12,0,0,1,0,.45,1.24,1.24,0,0,1-.19.54,1.18,1.18,0,0,1-.38.32,1.29,1.29,0,0,1-.51.14,2.91,2.91,0,0,1-.59,0l-.25-.05-.3-.08a1.81,1.81,0,0,1-.28-.12A.91.91,0,0,1,123.47,99Z" transform="translate(-69.03 -66.31)"/><path class="cls-11" d="M89,105.41l-.54,0L88,104.22l-1.77.11-.33,1.27-.54,0c.42-1.51.85-3,1.3-4.54l.51,0Q88.08,103.23,89,105.41Zm-1.24-1.65L87,101.91a2.49,2.49,0,0,1-.08-.29h0a1.54,1.54,0,0,1,0,.3c-.18.65-.36,1.29-.53,1.94Z" transform="translate(-69.03 -66.31)"/><path class="cls-11" d="M92.59,105.24l-.58,0-.75-1.21a2.43,2.43,0,0,0-.2-.29,1.13,1.13,0,0,0-.19-.19.67.67,0,0,0-.21-.1,1,1,0,0,0-.25,0l-.4,0,.09,1.89-.49,0c-.07-1.47-.15-3-.23-4.43l1.27-.06a1.74,1.74,0,0,1,.52.05,1.17,1.17,0,0,1,.42.2,1.25,1.25,0,0,1,.28.36A1.37,1.37,0,0,1,92,102a1.18,1.18,0,0,1,0,.43,1.22,1.22,0,0,1-.18.36,1.2,1.2,0,0,1-.28.27,1.68,1.68,0,0,1-.38.18h0a.78.78,0,0,1,.18.11.7.7,0,0,1,.16.14.94.94,0,0,1,.14.19c0,.07.11.15.17.25Zm-2.69-3.86c0,.54.06,1.08.08,1.61l.67,0a1.14,1.14,0,0,0,.34-.07,1,1,0,0,0,.26-.18.73.73,0,0,0,.17-.28.85.85,0,0,0,0-.36.73.73,0,0,0-.24-.55,1,1,0,0,0-.65-.17Z" transform="translate(-69.03 -66.31)"/><path class="cls-11" d="M95.9,105a2.29,2.29,0,0,1-1.14.29,1.82,1.82,0,0,1-1.44-.57,2.32,2.32,0,0,1-.59-1.58,2.4,2.4,0,0,1,.55-1.74,2,2,0,0,1,1.53-.7,2.33,2.33,0,0,1,1,.16v.55a1.94,1.94,0,0,0-1-.24,1.48,1.48,0,0,0-1.17.54,2,2,0,0,0-.41,1.38,2,2,0,0,0,.46,1.28,1.41,1.41,0,0,0,1.11.45,2,2,0,0,0,1.08-.32Z" transform="translate(-69.03 -66.31)"/><path class="cls-11" d="M99.88,105.11h-.49v-2l-2.18,0,0,2h-.49c0-1.48,0-3-.07-4.44h.5l0,1.94,2.18,0v-1.94h.5Z" transform="translate(-69.03 -66.31)"/><path class="cls-11" d="M101.46,105.11H101c0-1.48,0-3,0-4.44h.5Z" transform="translate(-69.03 -66.31)"/><path class="cls-11" d="M105.11,101.2l-1.22,0c0,1.33,0,2.65-.08,4h-.49c0-1.33.05-2.65.07-4l-1.22,0v-.47l3,0Z" transform="translate(-69.03 -66.31)"/><path class="cls-11" d="M107.87,105.26l-2.21-.07c0-1.48.09-3,.13-4.44l2.15.07v.47l-1.66-.06c0,.5,0,1,0,1.48l1.52.05,0,.47-1.52,0c0,.52,0,1,0,1.55l1.72.06Z" transform="translate(-69.03 -66.31)"/><path class="cls-11" d="M111.5,105.25a2.3,2.3,0,0,1-1.16.2,1.82,1.82,0,0,1-1.39-.68,2.32,2.32,0,0,1-.47-1.62,2.38,2.38,0,0,1,.69-1.69,2,2,0,0,1,1.58-.58,2.49,2.49,0,0,1,1,.23l0,.56a1.8,1.8,0,0,0-1-.32,1.47,1.47,0,0,0-1.21.45,1.92,1.92,0,0,0-.51,1.34,1.94,1.94,0,0,0,.36,1.31,1.39,1.39,0,0,0,1.07.54,2,2,0,0,0,1.1-.24Z" transform="translate(-69.03 -66.31)"/><path class="cls-11" d="M115.09,101.7l-1.23-.09-.27,4-.48,0c.08-1.32.17-2.64.26-4l-1.22-.08,0-.47c1,.06,2,.12,2.94.2Z" transform="translate(-69.03 -66.31)"/></svg>