<svg id="Layer_1" data-name="Layer 1" xmlns="http://www.w3.org/2000/svg" viewBox="0 0 63.79 69.48"><defs><style>.cls-1,.cls-11{fill:#fff;}.cls-1,.cls-2{stroke:#002050;}.cls-1,.cls-12,.cls-2{stroke-miterlimit:10;}.cls-1{stroke-width:2.07px;}.cls-2{fill:#0064b5;stroke-width:2.01px;}.cls-3{font-size:5.98px;fill:#1a184f;font-family:SegoeUI-Bold, Segoe UI;font-weight:700;}.cls-4{letter-spacing:0em;}.cls-5{letter-spacing:-0.02em;}.cls-6{letter-spacing:0.02em;}.cls-7{letter-spacing:0em;}.cls-8{font-size:3.8px;fill:#03013d;font-family:SegoeUI-Semibold, Segoe UI;font-weight:600;letter-spacing:0.24em;}.cls-9{letter-spacing:0.22em;}.cls-10{letter-spacing:0.24em;}.cls-12{fill:none;stroke:#464646;stroke-width:1.33px;}.cls-13{fill:#464646;}</style></defs><path class="cls-1" d="M98.42,51.72V65.51a191.17,191.17,0,0,0-46.84,0V51.72a4.28,4.28,0,0,1,2.8-4l18.53-6.09a6.64,6.64,0,0,1,4.18,0l18.53,6.09A4.28,4.28,0,0,1,98.42,51.72Z" transform="translate(-43.11 -40.26)"/><path class="cls-2" d="M98.42,66.38V87.52l-.06.41c-1,7.23-4.2,9.93-8.38,12.79a63,63,0,0,1-15,8,63,63,0,0,1-15-8c-4.18-2.86-7.35-5.56-8.38-12.79l-.06-.41v-21A181.78,181.78,0,0,1,98.42,66.38Z" transform="translate(-43.11 -40.26)"/><text class="cls-3" transform="translate(18.98 14.09) scale(0.94 1)">Mic<tspan class="cls-4" x="10.3" y="0">r</tspan><tspan x="12.65" y="0">os</tspan><tspan class="cls-5" x="18.94" y="0">o</tspan><tspan class="cls-6" x="22.51" y="0">f</tspan><tspan class="cls-7" x="24.91" y="0">t</tspan></text><text class="cls-8" transform="translate(20.11 18.61) scale(0.94 1)">CE<tspan class="cls-9" x="6.15" y="0">R</tspan><tspan class="cls-10" x="9.34" y="0">TIFIED</tspan></text><path class="cls-11" d="M103.66,64.74a224.43,224.43,0,0,0-57.32,0,2.78,2.78,0,0,0-2.54,3q1,7.36,2.09,14.72a2.72,2.72,0,0,0,3,2.29,204,204,0,0,1,52.14,0,2.72,2.72,0,0,0,3-2.29q1-7.36,2.09-14.72A2.78,2.78,0,0,0,103.66,64.74Z" transform="translate(-43.11 -40.26)"/><path class="cls-12" d="M103.66,64.74a224.43,224.43,0,0,0-57.32,0,2.78,2.78,0,0,0-2.54,3q1,7.36,2.09,14.72a2.72,2.72,0,0,0,3,2.29,204,204,0,0,1,52.14,0,2.72,2.72,0,0,0,3-2.29q1-7.36,2.09-14.72A2.78,2.78,0,0,0,103.66,64.74Z" transform="translate(-43.11 -40.26)"/><path class="cls-13" d="M61.32,71.89l-.75,0-.42-1.05L58.52,71c-.1.36-.2.72-.29,1.09l-.75,0c.43-1.43.86-2.85,1.31-4.27l.78,0C60.16,69.15,60.74,70.52,61.32,71.89Zm-1.39-1.56-.66-1.64c0-.06,0-.14-.07-.26h0a1.2,1.2,0,0,1,0,.26c-.16.57-.31,1.14-.47,1.7Z" transform="translate(-43.11 -40.26)"/><path class="cls-13" d="M65,67.85c-.72,1.13-1.44,2.26-2.14,3.39.74,0,1.48-.06,2.23-.09,0,.19,0,.39,0,.59-1.06,0-2.12.08-3.18.13,0-.11,0-.22,0-.32.71-1.13,1.42-2.26,2.14-3.38L62,68.26l0-.59c1,0,2.05-.09,3.08-.12C65,67.65,65,67.75,65,67.85Z" transform="translate(-43.11 -40.26)"/><path class="cls-13" d="M69.29,69.92c0,1.18-.51,1.78-1.6,1.81s-1.59-.52-1.63-1.65L66,67.51l.7,0c0,.81,0,1.61.07,2.42s.35,1.22,1,1.21.9-.42.88-1.22l-.06-2.46.69,0Z" transform="translate(-43.11 -40.26)"/><path class="cls-13" d="M73.82,71.55H73c-.22-.38-.45-.75-.67-1.12a2,2,0,0,0-.18-.26A1,1,0,0,0,72,70a.54.54,0,0,0-.2-.1.75.75,0,0,0-.23,0h-.28l0,1.7h-.68c0-1.4,0-2.8-.07-4.19l1.37,0a1.6,1.6,0,0,1,.54.06,1.08,1.08,0,0,1,.43.21,1,1,0,0,1,.29.35,1.07,1.07,0,0,1,.11.49,1.31,1.31,0,0,1-.06.41,1.35,1.35,0,0,1-.19.33,1,1,0,0,1-.28.25,1.18,1.18,0,0,1-.38.16v0a.72.72,0,0,1,.2.14l.16.15.15.19.17.24C73.32,70.77,73.57,71.16,73.82,71.55ZM71.26,68c0,.45,0,.91,0,1.36h.58a.93.93,0,0,0,.29,0,.51.51,0,0,0,.23-.15.76.76,0,0,0,.15-.23.73.73,0,0,0,0-.3.63.63,0,0,0-.19-.47.82.82,0,0,0-.55-.16Z" transform="translate(-43.11 -40.26)"/><path class="cls-13" d="M77,71.54H74.65c0-1.4,0-2.79,0-4.19h2.24v.59H75.32v1.18h1.43v.59H75.33V71H77Z" transform="translate(-43.11 -40.26)"/><path class="cls-13" d="M80,71.56c0-1.4,0-2.8,0-4.19h1.2c1.54,0,2.29.73,2.26,2.09A2,2,0,0,1,82.85,71a2.38,2.38,0,0,1-1.7.56Zm.73-3.6c0,1,0,2,0,3h.55a1.53,1.53,0,0,0,1.13-.39,1.55,1.55,0,0,0,.42-1.13A1.32,1.32,0,0,0,81.31,68Z" transform="translate(-43.11 -40.26)"/><path class="cls-13" d="M87.86,71.74l-.75,0c-.11-.36-.22-.72-.34-1.08l-1.62,0c-.13.35-.26.71-.38,1.06l-.75,0c.55-1.39,1.1-2.77,1.66-4.15l.78,0C86.93,68.92,87.4,70.33,87.86,71.74Zm-1.25-1.67c-.17-.57-.35-1.13-.52-1.69a2.24,2.24,0,0,1,0-.27h0a1.05,1.05,0,0,1-.07.26c-.2.56-.41,1.11-.61,1.66Z" transform="translate(-43.11 -40.26)"/><path class="cls-13" d="M91.17,68.28,90,68.22l-.15,3.6-.69,0,.15-3.6-1.19,0c0-.2,0-.39,0-.59l3.08.13C91.19,67.88,91.18,68.08,91.17,68.28Z" transform="translate(-43.11 -40.26)"/><path class="cls-13" d="M94.91,72.08l-.75,0c-.11-.36-.21-.72-.31-1.08l-1.63-.09c-.13.35-.27.7-.41,1l-.74,0c.58-1.38,1.16-2.75,1.76-4.12l.78,0C94.05,69.23,94.48,70.65,94.91,72.08ZM93.7,70.37c-.16-.56-.33-1.13-.49-1.7a2.08,2.08,0,0,1,0-.26h0a2.3,2.3,0,0,1-.07.26l-.66,1.64Z" transform="translate(-43.11 -40.26)"/><path class="cls-13" d="M54.48,75.35,53,75.46c0,.42.06.84.1,1.26l1.39-.1c0,.19,0,.39,0,.58l-1.4.1c0,.59.1,1.17.14,1.75l-.67,0c-.11-1.39-.23-2.78-.34-4.18l2.21-.16Z" transform="translate(-43.11 -40.26)"/><path class="cls-13" d="M58.8,77c.07,1.18-.43,1.79-1.5,1.86s-1.57-.47-1.66-1.6l-.18-2.56.68,0c.06.8.11,1.61.17,2.41s.39,1.21,1,1.18.87-.45.82-1.24L58,74.54l.67,0Z" transform="translate(-43.11 -40.26)"/><path class="cls-13" d="M63.61,78.45l-.73,0-2.09-3a1.41,1.41,0,0,1-.13-.24h0a3.75,3.75,0,0,1,0,.58l.15,2.74-.64,0L60,74.43l.79,0c.68,1,1.36,1.94,2,2.91.09.12.14.21.17.25h0A4.17,4.17,0,0,1,62.9,77c0-.9-.09-1.8-.13-2.7l.65,0C63.48,75.66,63.54,77.06,63.61,78.45Z" transform="translate(-43.11 -40.26)"/><path class="cls-13" d="M65,78.4c-.06-1.4-.11-2.79-.17-4.19l1.18,0c1.51,0,2.28.62,2.31,2a2,2,0,0,1-.57,1.57,2.29,2.29,0,0,1-1.64.64Zm.53-3.62c0,1,.07,2,.11,3l.53,0a1.44,1.44,0,0,0,1.09-.44,1.59,1.59,0,0,0,.36-1.15A1.3,1.3,0,0,0,66,74.76Z" transform="translate(-43.11 -40.26)"/><path class="cls-13" d="M72.62,78.21h-.73c-.12-.35-.25-.71-.38-1.06l-1.58,0-.33,1.07-.73,0c.47-1.41.94-2.82,1.42-4.22l.76,0C71.58,75.43,72.11,76.82,72.62,78.21ZM71.33,76.6l-.6-1.67c0-.05,0-.14-.06-.26h0a1.46,1.46,0,0,1,0,.27c-.17.56-.35,1.12-.52,1.68Z" transform="translate(-43.11 -40.26)"/><path class="cls-13" d="M77.84,78.19h-.66V75.48c0-.22,0-.5,0-.82h0a1.9,1.9,0,0,1-.11.4c-.4,1-.81,2.09-1.2,3.13h-.46l-1.23-3.1a2.42,2.42,0,0,1-.11-.42h0c0,.17,0,.44,0,.82,0,.9,0,1.81,0,2.71h-.62c0-1.39,0-2.79,0-4.19h1q.55,1.4,1.08,2.79a3.73,3.73,0,0,1,.16.48h0c.06-.22.12-.38.16-.49.36-.93.72-1.86,1.09-2.78h.92C77.85,75.4,77.85,76.8,77.84,78.19Z" transform="translate(-43.11 -40.26)"/><path class="cls-13" d="M81.43,78.23l-2.26,0c0-1.39,0-2.79,0-4.19l2.2,0c0,.19,0,.39,0,.59l-1.52,0c0,.39,0,.79,0,1.18l1.39,0c0,.2,0,.4,0,.59l-1.39,0c0,.42,0,.83,0,1.24l1.59,0C81.44,77.84,81.43,78,81.43,78.23Z" transform="translate(-43.11 -40.26)"/><path class="cls-13" d="M85.9,78.34l-.73,0c-.61-1-1.23-2.08-1.85-3.12,0-.08-.08-.17-.12-.25h0c0,.09,0,.28,0,.58,0,.91,0,1.83-.07,2.74h-.64l.09-4.19.78,0c.61,1,1.21,2,1.8,3,.07.13.12.21.14.26h0a4.43,4.43,0,0,1,0-.56c0-.9.06-1.8.08-2.7l.65,0C86,75.54,85.94,76.94,85.9,78.34Z" transform="translate(-43.11 -40.26)"/><path class="cls-13" d="M90,74.88l-1.18,0c0,1.2-.1,2.4-.15,3.6l-.66,0c0-1.2.09-2.4.14-3.6l-1.17,0c0-.2,0-.4,0-.59l3,.11C90,74.49,90,74.69,90,74.88Z" transform="translate(-43.11 -40.26)"/><path class="cls-13" d="M93.64,78.67l-.73,0-.3-1.08L91,77.47c-.14.35-.27.7-.4,1l-.73,0c.56-1.37,1.14-2.74,1.72-4.11l.76,0C92.8,75.83,93.23,77.25,93.64,78.67ZM92.46,77c-.16-.57-.32-1.13-.47-1.7A1.09,1.09,0,0,1,92,75h0a1.2,1.2,0,0,1-.07.26c-.21.54-.43,1.09-.64,1.64Z" transform="translate(-43.11 -40.26)"/><path class="cls-13" d="M96.77,78.86l-2.23-.14c.09-1.39.17-2.79.26-4.18l.68,0-.24,3.59,1.57.1Z" transform="translate(-43.11 -40.26)"/><path class="cls-13" d="M97.52,78.74c0-.24,0-.47,0-.71a1.2,1.2,0,0,0,.21.17l.26.14a1.61,1.61,0,0,0,.29.09,1.32,1.32,0,0,0,.26,0,1.18,1.18,0,0,0,.64-.1.53.53,0,0,0,.24-.41.44.44,0,0,0,0-.26.73.73,0,0,0-.18-.22A2.26,2.26,0,0,0,99,77.3c-.1-.07-.22-.13-.34-.2s-.26-.17-.37-.26a1.94,1.94,0,0,1-.29-.28,1.06,1.06,0,0,1-.18-.33,1,1,0,0,1,0-.42.94.94,0,0,1,.17-.51,1,1,0,0,1,.36-.33,1.43,1.43,0,0,1,.5-.18,2.63,2.63,0,0,1,.56,0,2.15,2.15,0,0,1,.92.22c0,.23,0,.46,0,.69a1.48,1.48,0,0,0-.87-.33,1.63,1.63,0,0,0-.31,0,.77.77,0,0,0-.27.08.65.65,0,0,0-.21.16.43.43,0,0,0-.09.24.49.49,0,0,0,0,.25.55.55,0,0,0,.15.2,2,2,0,0,0,.26.18c.1.06.21.13.35.2l.38.27a1.77,1.77,0,0,1,.31.3,1.58,1.58,0,0,1,.2.36,1,1,0,0,1,0,.42,1,1,0,0,1-.16.53,1.06,1.06,0,0,1-.37.33,1.29,1.29,0,0,1-.49.16,2.24,2.24,0,0,1-.58,0l-.25,0L98,79l-.29-.09A1,1,0,0,1,97.52,78.74Z" transform="translate(-43.11 -40.26)"/><polygon class="cls-11" points="31.89 49.19 33.01 52.62 36.62 52.62 33.7 54.74 34.81 58.17 31.89 56.05 28.98 58.17 30.09 54.74 27.17 52.62 30.78 52.62 31.89 49.19"/></svg>