<svg id="Layer_1" data-name="Layer 1" xmlns="http://www.w3.org/2000/svg" viewBox="0 0 63.79 69.48"><defs><style>.cls-1,.cls-11{fill:#fff;}.cls-1,.cls-2{stroke:#002050;}.cls-1,.cls-12,.cls-2{stroke-miterlimit:10;}.cls-1{stroke-width:2.07px;}.cls-2{fill:#0064b5;stroke-width:2.01px;}.cls-3{font-size:5.98px;fill:#1a184f;font-family:SegoeUI-Bold, Segoe UI;font-weight:700;}.cls-4{letter-spacing:0em;}.cls-5{letter-spacing:-0.02em;}.cls-6{letter-spacing:0.02em;}.cls-7{letter-spacing:0em;}.cls-8{font-size:3.8px;fill:#03013d;font-family:SegoeUI-Semibold, Segoe UI;font-weight:600;letter-spacing:0.24em;}.cls-9{letter-spacing:0.22em;}.cls-10{letter-spacing:0.24em;}.cls-12{fill:none;stroke:#464646;stroke-width:1.33px;}.cls-13{fill:#464646;}</style></defs><path class="cls-1" d="M98.42,51.72V65.51a191.17,191.17,0,0,0-46.84,0V51.72a4.28,4.28,0,0,1,2.8-4l18.53-6.09a6.64,6.64,0,0,1,4.18,0l18.53,6.09A4.28,4.28,0,0,1,98.42,51.72Z" transform="translate(-43.11 -40.26)"/><path class="cls-2" d="M98.42,66.38V87.52l-.06.41c-1,7.23-4.2,9.93-8.38,12.79a63,63,0,0,1-15,8,63,63,0,0,1-15-8c-4.18-2.86-7.35-5.56-8.38-12.79l-.06-.41v-21A181.78,181.78,0,0,1,98.42,66.38Z" transform="translate(-43.11 -40.26)"/><text class="cls-3" transform="translate(18.98 14.09) scale(0.94 1)">Mic<tspan class="cls-4" x="10.3" y="0">r</tspan><tspan x="12.65" y="0">os</tspan><tspan class="cls-5" x="18.94" y="0">o</tspan><tspan class="cls-6" x="22.51" y="0">f</tspan><tspan class="cls-7" x="24.91" y="0">t</tspan></text><text class="cls-8" transform="translate(20.11 18.61) scale(0.94 1)">CE<tspan class="cls-9" x="6.15" y="0">R</tspan><tspan class="cls-10" x="9.34" y="0">TIFIED</tspan></text><path class="cls-11" d="M103.66,64.74a224.43,224.43,0,0,0-57.32,0,2.78,2.78,0,0,0-2.54,3q1,7.36,2.09,14.72a2.72,2.72,0,0,0,3,2.29,204,204,0,0,1,52.14,0,2.72,2.72,0,0,0,3-2.29q1-7.36,2.09-14.72A2.78,2.78,0,0,0,103.66,64.74Z" transform="translate(-43.11 -40.26)"/><path class="cls-12" d="M103.66,64.74a224.43,224.43,0,0,0-57.32,0,2.78,2.78,0,0,0-2.54,3q1,7.36,2.09,14.72a2.72,2.72,0,0,0,3,2.29,204,204,0,0,1,52.14,0,2.72,2.72,0,0,0,3-2.29q1-7.36,2.09-14.72A2.78,2.78,0,0,0,103.66,64.74Z" transform="translate(-43.11 -40.26)"/><path class="cls-13" d="M70.21,71.6h-.75l-.39-1.06-1.62,0-.33,1.07-.74,0c.46-1.42.94-2.83,1.42-4.24l.78,0C69.13,68.82,69.67,70.21,70.21,71.6ZM68.87,70c-.2-.55-.41-1.1-.61-1.66,0,0,0-.14-.07-.26h0a1.46,1.46,0,0,1-.05.27c-.17.56-.35,1.12-.52,1.68Z" transform="translate(-43.11 -40.26)"/><path class="cls-13" d="M74,67.66c-.76,1.1-1.5,2.21-2.24,3.32L74,71c0,.19,0,.39,0,.59-1.06,0-2.12,0-3.18,0,0-.11,0-.22,0-.32.74-1.11,1.48-2.22,2.23-3.32L71,68c0-.2,0-.39,0-.59l3.07,0C74,67.46,74,67.56,74,67.66Z" transform="translate(-43.11 -40.26)"/><path class="cls-13" d="M78.22,69.85c0,1.17-.56,1.76-1.65,1.76S75,71,75,69.91c0-.85,0-1.71,0-2.56h.69c0,.8,0,1.61,0,2.42S76,71,76.62,71s.91-.4.92-1.19V67.35h.7C78.23,68.18,78.23,69,78.22,69.85Z" transform="translate(-43.11 -40.26)"/><path class="cls-13" d="M82.71,71.6h-.8l-.64-1.14a2,2,0,0,0-.17-.26.79.79,0,0,0-.17-.19.5.5,0,0,0-.19-.1.85.85,0,0,0-.23,0h-.28c0,.57,0,1.13,0,1.7h-.68c0-1.39,0-2.79,0-4.19l1.37,0a1.8,1.8,0,0,1,.54.08,1.33,1.33,0,0,1,.43.21,1.09,1.09,0,0,1,.28.36,1.14,1.14,0,0,1,.09.5,1.1,1.1,0,0,1-.07.41,1.13,1.13,0,0,1-.19.32,1.16,1.16,0,0,1-.29.25,2.26,2.26,0,0,1-.39.15h0a1,1,0,0,1,.2.14l.15.17a1.43,1.43,0,0,1,.15.18l.16.25C82.23,70.81,82.47,71.2,82.71,71.6Zm-2.46-3.67c0,.46,0,.91,0,1.37h.57a.88.88,0,0,0,.29,0,.72.72,0,0,0,.24-.14.61.61,0,0,0,.15-.23.73.73,0,0,0,.06-.3.55.55,0,0,0-.18-.47.73.73,0,0,0-.54-.18Z" transform="translate(-43.11 -40.26)"/><path class="cls-13" d="M85.85,71.68l-2.31-.06.09-4.19q1.13,0,2.25.06c0,.19,0,.39,0,.59l-1.55,0,0,1.19,1.43,0c0,.19,0,.39,0,.59l-1.42,0,0,1.24,1.62,0Z" transform="translate(-43.11 -40.26)"/><path class="cls-13" d="M54.48,75.35,53,75.46c0,.42.06.84.1,1.26l1.39-.1c0,.19,0,.39,0,.58l-1.4.1c0,.59.1,1.17.14,1.75l-.67,0c-.11-1.39-.23-2.78-.34-4.18l2.21-.16C54.45,75,54.47,75.16,54.48,75.35Z" transform="translate(-43.11 -40.26)"/><path class="cls-13" d="M58.8,77c.07,1.18-.43,1.79-1.5,1.86s-1.57-.47-1.66-1.6l-.18-2.56.68,0c.06.8.11,1.61.17,2.41s.39,1.21,1,1.18.87-.45.82-1.24L58,74.54l.67,0Z" transform="translate(-43.11 -40.26)"/><path class="cls-13" d="M63.61,78.45l-.73,0-2.09-3a1.41,1.41,0,0,1-.13-.24h0a3.75,3.75,0,0,1,0,.58l.15,2.74-.64,0L60,74.43l.79,0c.68,1,1.36,1.94,2,2.91.09.12.14.21.17.25h0A4.17,4.17,0,0,1,62.9,77c0-.9-.09-1.8-.13-2.7l.65,0C63.48,75.66,63.54,77.06,63.61,78.45Z" transform="translate(-43.11 -40.26)"/><path class="cls-13" d="M65,78.4c-.06-1.4-.11-2.79-.17-4.19l1.18,0c1.51,0,2.28.62,2.31,2a2,2,0,0,1-.57,1.57,2.29,2.29,0,0,1-1.64.64Zm.53-3.62c0,1,.07,2,.11,3l.53,0a1.44,1.44,0,0,0,1.09-.44,1.59,1.59,0,0,0,.36-1.15A1.3,1.3,0,0,0,66,74.76Z" transform="translate(-43.11 -40.26)"/><path class="cls-13" d="M72.62,78.21h-.73c-.12-.35-.25-.71-.38-1.06l-1.58,0-.33,1.07-.73,0c.47-1.41.94-2.82,1.42-4.22l.76,0C71.58,75.43,72.11,76.82,72.62,78.21ZM71.33,76.6l-.6-1.67c0-.05,0-.14-.06-.26h0a1.46,1.46,0,0,1,0,.27c-.17.56-.35,1.12-.52,1.68Z" transform="translate(-43.11 -40.26)"/><path class="cls-13" d="M77.84,78.19h-.66V75.48c0-.22,0-.5,0-.82h0a1.9,1.9,0,0,1-.11.4c-.4,1-.81,2.09-1.2,3.13h-.46l-1.23-3.1a2.42,2.42,0,0,1-.11-.42h0c0,.17,0,.44,0,.82,0,.9,0,1.81,0,2.71h-.62c0-1.39,0-2.79,0-4.19h1q.55,1.4,1.08,2.79a3.73,3.73,0,0,1,.16.48h0c.06-.22.12-.38.16-.49.36-.93.72-1.86,1.09-2.78h.92C77.85,75.4,77.84,76.8,77.84,78.19Z" transform="translate(-43.11 -40.26)"/><path class="cls-13" d="M81.43,78.23l-2.26,0c0-1.39,0-2.79,0-4.19l2.2,0c0,.19,0,.39,0,.59l-1.52,0c0,.39,0,.79,0,1.18l1.39,0c0,.2,0,.4,0,.59l-1.39,0c0,.42,0,.83,0,1.24l1.59,0C81.44,77.84,81.43,78,81.43,78.23Z" transform="translate(-43.11 -40.26)"/><path class="cls-13" d="M85.9,78.34l-.73,0c-.61-1-1.23-2.08-1.85-3.12,0-.08-.08-.17-.12-.25h0c0,.09,0,.28,0,.58,0,.91,0,1.83-.07,2.74h-.64l.09-4.19.78,0c.61,1,1.21,2,1.8,3,.07.13.12.21.14.26h0a4.43,4.43,0,0,1,0-.56c0-.9.06-1.8.08-2.7l.65,0C86,75.54,85.94,76.94,85.9,78.34Z" transform="translate(-43.11 -40.26)"/><path class="cls-13" d="M90,74.88l-1.18,0c0,1.2-.1,2.4-.15,3.6l-.66,0c0-1.2.09-2.4.14-3.6l-1.17,0c0-.2,0-.4,0-.59l3,.11C90,74.49,90,74.69,90,74.88Z" transform="translate(-43.11 -40.26)"/><path class="cls-13" d="M93.64,78.67l-.73,0-.3-1.08L91,77.47c-.14.35-.27.7-.4,1l-.73,0c.56-1.37,1.14-2.74,1.72-4.11l.76,0C92.8,75.83,93.23,77.25,93.64,78.67ZM92.46,77c-.16-.57-.32-1.13-.47-1.7A1.09,1.09,0,0,1,92,75h0a1.2,1.2,0,0,1-.07.26c-.21.54-.43,1.09-.64,1.64Z" transform="translate(-43.11 -40.26)"/><path class="cls-13" d="M96.77,78.86l-2.23-.14c.09-1.39.17-2.79.26-4.18l.68,0-.24,3.59,1.57.1C96.79,78.47,96.78,78.66,96.77,78.86Z" transform="translate(-43.11 -40.26)"/><path class="cls-13" d="M97.52,78.74c0-.24,0-.47,0-.71a1.2,1.2,0,0,0,.21.17l.26.14a1.61,1.61,0,0,0,.29.09,1.32,1.32,0,0,0,.26,0,1.18,1.18,0,0,0,.64-.1.53.53,0,0,0,.24-.41.44.44,0,0,0,0-.26.73.73,0,0,0-.18-.22A2.26,2.26,0,0,0,99,77.3c-.1-.07-.22-.13-.34-.2s-.26-.17-.37-.26a1.94,1.94,0,0,1-.29-.28,1.06,1.06,0,0,1-.18-.33,1,1,0,0,1,0-.42.94.94,0,0,1,.17-.51,1,1,0,0,1,.36-.33,1.43,1.43,0,0,1,.5-.18,2.63,2.63,0,0,1,.56,0,2.15,2.15,0,0,1,.92.22c0,.23,0,.46,0,.69a1.48,1.48,0,0,0-.87-.33,1.61,1.61,0,0,0-.31,0,.77.77,0,0,0-.27.08.65.65,0,0,0-.21.16.43.43,0,0,0-.09.24.49.49,0,0,0,0,.25.55.55,0,0,0,.15.2,2,2,0,0,0,.26.18c.1.06.21.13.35.2l.38.27a1.77,1.77,0,0,1,.31.3,1.58,1.58,0,0,1,.2.36,1,1,0,0,1,0,.42,1,1,0,0,1-.16.53,1.06,1.06,0,0,1-.37.33,1.29,1.29,0,0,1-.49.16,2.24,2.24,0,0,1-.58,0l-.25,0L98,79l-.29-.09A1,1,0,0,1,97.52,78.74Z" transform="translate(-43.11 -40.26)"/><polygon class="cls-11" points="31.89 49.19 33.01 52.62 36.62 52.62 33.7 54.74 34.81 58.17 31.89 56.05 28.98 58.17 30.09 54.74 27.17 52.62 30.78 52.62 31.89 49.19"/></svg>