<svg id="Layer_1" data-name="Layer 1" xmlns="http://www.w3.org/2000/svg" viewBox="0 0 61.94 68.38"><defs><style>.cls-1{fill:#505050;}.cls-1,.cls-2{stroke:#002050;stroke-miterlimit:10;stroke-width:2px;}.cls-2{fill:#0064b5;}.cls-3{font-size:5.17px;font-family:SegoeUI-Bold, Segoe UI;font-weight:700;}.cls-10,.cls-3,.cls-7,.cls-8{fill:#fff;}.cls-4{letter-spacing:0em;}.cls-5{letter-spacing:-0.01em;}.cls-6{letter-spacing:0.02em;}.cls-8{font-size:3.93px;font-family:SegoeUI, Segoe UI;letter-spacing:0.18em;}.cls-9{letter-spacing:0.14em;}.cls-10{stroke:#505050;stroke-width:1.4px;}.cls-11{fill:#3c3c3c;}</style></defs><path class="cls-1" d="M121.87,77.78V91.6a166.8,166.8,0,0,0-43.74,0V77.78a4.29,4.29,0,0,1,2.62-4L98,67.65a5.83,5.83,0,0,1,3.91,0l17.3,6.11A4.29,4.29,0,0,1,121.87,77.78Z" transform="translate(-69.03 -66.31)"/><path class="cls-2" d="M121.87,110.67v.5l-.06.44c-1,7.67-3.92,10.53-7.82,13.56a56.52,56.52,0,0,1-14,8.43,56.16,56.16,0,0,1-14-8.43c-3.9-3-6.86-5.89-7.83-13.56,0-.14,0-.29-.05-.44v-.49A149.46,149.46,0,0,1,121.87,110.67Z" transform="translate(-69.03 -66.31)"/><text class="cls-3" transform="translate(20.09 13.79) scale(0.93 1)">Mic<tspan class="cls-4" x="8.9" y="0">r</tspan><tspan x="10.94" y="0">os</tspan><tspan class="cls-5" x="16.37" y="0">o</tspan><tspan class="cls-6" x="19.45" y="0">f</tspan><tspan x="21.53" y="0">t</tspan></text><path class="cls-7" d="M94.5,116.27q-.8.08-1.59.18c-.12-1-.25-2-.38-3,.54-.07,1.07-.13,1.61-.18l0,.42-1.1.12.1.86,1-.11,0,.42-1,.11.1.89,1.13-.12Z" transform="translate(-69.03 -66.31)"/><path class="cls-7" d="M97.42,116.05l-.56,0L96.2,115l-.07-.14h0a1.26,1.26,0,0,1-.05.15c-.18.38-.35.77-.52,1.15l-.57,0c.27-.53.54-1.07.82-1.6-.33-.48-.67-1-1-1.43l.6,0c.21.32.41.65.61,1a1.28,1.28,0,0,1,.11.2h0a1,1,0,0,1,.09-.22c.16-.35.32-.7.49-1l.56,0c-.29.51-.56,1-.83,1.55C96.77,115.06,97.1,115.56,97.42,116.05Z" transform="translate(-69.03 -66.31)"/><path class="cls-7" d="M98.49,114.91l0,1.1-.47,0c0-1-.07-2-.11-3l.91,0a1.16,1.16,0,0,1,.8.23.85.85,0,0,1,.29.69,1,1,0,0,1-.29.72,1.1,1.1,0,0,1-.77.3Zm0-1.52,0,1.11h.31a.74.74,0,0,0,.48-.16.54.54,0,0,0,.15-.43c0-.35-.21-.53-.61-.52Z" transform="translate(-69.03 -66.31)"/><path class="cls-7" d="M102.27,116c-.53,0-1.06,0-1.6,0l0-3c.54,0,1.07,0,1.61,0v.43l-1.11,0,0,.86,1,0c0,.14,0,.28,0,.42l-1,0c0,.3,0,.6,0,.9q.57,0,1.14,0Z" transform="translate(-69.03 -66.31)"/><path class="cls-7" d="M105.22,116.2l-.55,0c-.13-.29-.27-.57-.4-.85a1.8,1.8,0,0,0-.11-.2,1.71,1.71,0,0,0-.11-.14l-.13-.08a.43.43,0,0,0-.17,0h-.19l-.07,1.23-.47,0,.15-3,1,0a1.59,1.59,0,0,1,.39.08.79.79,0,0,1,.29.18.66.66,0,0,1,.19.27.81.81,0,0,1,0,.36.82.82,0,0,1-.07.29.76.76,0,0,1-.15.23.65.65,0,0,1-.21.16.94.94,0,0,1-.28.1h0a.69.69,0,0,1,.13.11l.1.12s.07.09.1.15l.1.18Zm-1.58-2.75-.06,1,.41,0a.5.5,0,0,0,.21,0,.56.56,0,0,0,.17-.09.61.61,0,0,0,.12-.16.51.51,0,0,0,.05-.22.43.43,0,0,0-.11-.35.58.58,0,0,0-.38-.14Z" transform="translate(-69.03 -66.31)"/><path class="cls-7" d="M107.84,113.85l-.85-.1c-.1.87-.19,1.73-.29,2.6l-.47,0,.27-2.6-.85-.08,0-.43c.73.07,1.47.15,2.2.24Z" transform="translate(-69.03 -66.31)"/><text class="cls-8" transform="translate(20.66 18.71) scale(0.93 1)">CE<tspan class="cls-9" x="5.83" y="0">R</tspan><tspan x="8.71" y="0">TIFIED</tspan></text><polygon class="cls-7" points="24.84 53.72 25.46 55.75 27.45 55.75 25.84 57 26.45 59.03 24.84 57.77 23.23 59.03 23.85 57 22.23 55.75 24.23 55.75 24.84 53.72"/><polygon class="cls-7" points="37.33 53.72 37.95 55.75 39.94 55.75 38.33 57 38.95 59.03 37.33 57.77 35.72 59.03 36.34 57 34.73 55.75 36.72 55.75 37.33 53.72"/><polygon class="cls-7" points="31.04 57.49 31.65 59.51 33.63 59.51 32.03 60.76 32.64 62.78 31.04 61.53 29.43 62.78 30.05 60.76 28.44 59.51 30.43 59.51 31.04 57.49"/><path class="cls-10" d="M130.23,94.54q-1.15,7.53-2.33,15.06a2.6,2.6,0,0,1-2.92,2.31c-1-.19-2.07-.36-3.11-.53a142.25,142.25,0,0,0-43.74,0c-1,.16-2.08.33-3.11.52a2.6,2.6,0,0,1-2.92-2.31q-1.17-7.53-2.33-15.06a2.89,2.89,0,0,1,2.34-3.29c2-.36,4-.67,6-1a158.61,158.61,0,0,1,43.74,0c2,.28,4,.59,6,1A2.89,2.89,0,0,1,130.23,94.54Z" transform="translate(-69.03 -66.31)"/><path class="cls-11" d="M75.46,102.45c-.18-1.46-.37-2.93-.55-4.4l1.16-.15a2,2,0,0,1,2.48,1.9,2.29,2.29,0,0,1-.44,1.71,2.19,2.19,0,0,1-1.55.81Zm0-4c.14,1.16.29,2.32.43,3.48l.62-.08a1.69,1.69,0,0,0,1.21-.61A1.79,1.79,0,0,0,78,99.87a1.51,1.51,0,0,0-1.91-1.5Z" transform="translate(-69.03 -66.31)"/><path class="cls-11" d="M81.8,101.76l-2.19.22c-.16-1.48-.31-3-.47-4.42l2.15-.22,0,.47L79.69,98l.15,1.46,1.51-.15.05.47-1.51.15.15,1.55,1.72-.17Z" transform="translate(-69.03 -66.31)"/><path class="cls-11" d="M85.36,97c-.42,1.52-.82,3-1.21,4.55l-.54,0q-.93-2.16-1.91-4.29l.55,0c.5,1.13,1,2.27,1.47,3.4a1.8,1.8,0,0,1,.12.39h0a2.14,2.14,0,0,1,.06-.41c.3-1.2.6-2.4.91-3.6Z" transform="translate(-69.03 -66.31)"/><path class="cls-11" d="M87.81,101.36a1.77,1.77,0,0,1-1.45-.53,2.39,2.39,0,0,1-.66-1.57,2.51,2.51,0,0,1,.43-1.75,1.89,1.89,0,0,1,1.46-.74,1.82,1.82,0,0,1,1.46.54,2.39,2.39,0,0,1,.62,1.59,2.53,2.53,0,0,1-.45,1.74A1.83,1.83,0,0,1,87.81,101.36Zm-.22-4.11a1.31,1.31,0,0,0-1,.57,2.36,2.36,0,0,0,.17,2.64,1.26,1.26,0,0,0,1.07.43,1.37,1.37,0,0,0,1.06-.54A2.06,2.06,0,0,0,89.16,99a2.15,2.15,0,0,0-.47-1.34A1.29,1.29,0,0,0,87.59,97.25Z" transform="translate(-69.03 -66.31)"/><path class="cls-11" d="M91,99.43c0,.56,0,1.12.07,1.67l-.48,0c-.08-1.48-.15-3-.22-4.44l1.17,0a1.5,1.5,0,0,1,1.07.3,1.32,1.32,0,0,1,.41,1,1.43,1.43,0,0,1-.38,1,1.55,1.55,0,0,1-1.09.44Zm-.11-2.29c0,.61.06,1.21.08,1.82l.52,0a1.12,1.12,0,0,0,.77-.27.92.92,0,0,0,.24-.71c0-.58-.37-.87-1-.84Z" transform="translate(-69.03 -66.31)"/><path class="cls-11" d="M93.73,100.82l0-.61a1.43,1.43,0,0,0,.24.16,2.65,2.65,0,0,0,.3.11,1.55,1.55,0,0,0,.31.07,1.37,1.37,0,0,0,.28,0,1.11,1.11,0,0,0,.67-.19.61.61,0,0,0,.21-.52.62.62,0,0,0-.08-.31.79.79,0,0,0-.21-.24,2,2,0,0,0-.32-.2l-.39-.2-.42-.23a1.8,1.8,0,0,1-.34-.26.9.9,0,0,1-.23-.32,1.09,1.09,0,0,1-.1-.43,1,1,0,0,1,.11-.53,1.18,1.18,0,0,1,.32-.38,1.47,1.47,0,0,1,.47-.23,2.44,2.44,0,0,1,.54-.09,2,2,0,0,1,.92.14v.58a1.65,1.65,0,0,0-1.29-.2,1.1,1.1,0,0,0-.29.12.7.7,0,0,0-.2.22.59.59,0,0,0-.07.31.65.65,0,0,0,.07.29.63.63,0,0,0,.18.22,1.41,1.41,0,0,0,.3.19l.39.2a4.38,4.38,0,0,1,.43.24,2.11,2.11,0,0,1,.37.28,1.31,1.31,0,0,1,.24.34.92.92,0,0,1,.1.44,1.08,1.08,0,0,1-.11.56,1,1,0,0,1-.31.38,1.44,1.44,0,0,1-.47.21,2,2,0,0,1-.56.08h-.24l-.3,0-.29-.07A.9.9,0,0,1,93.73,100.82Z" transform="translate(-69.03 -66.31)"/><path class="cls-11" d="M100.92,100.89H98.71l0-4.44h2.15v.47H99.18V98.4h1.53v.46H99.19c0,.52,0,1,0,1.55h1.72Z" transform="translate(-69.03 -66.31)"/><path class="cls-11" d="M105.07,101l-.6,0q-1-1.79-2.1-3.57a1.47,1.47,0,0,1-.14-.28h0a4.88,4.88,0,0,1,0,.61l0,3.21h-.48l0-4.44h.64c.7,1.17,1.39,2.34,2.06,3.52a2.4,2.4,0,0,1,.16.3h0a3.94,3.94,0,0,1,0-.66c0-1,0-2.08.07-3.12h.49C105.14,98,105.1,99.47,105.07,101Z" transform="translate(-69.03 -66.31)"/><path class="cls-11" d="M109.28,100.79a2.71,2.71,0,0,1-1.41.32,1.84,1.84,0,0,1-1.42-.67,2.64,2.64,0,0,1,.17-3.31,2,2,0,0,1,1.6-.6,2.56,2.56,0,0,1,1.15.28l0,.58a2.06,2.06,0,0,0-1.21-.39,1.47,1.47,0,0,0-1.18.47,1.91,1.91,0,0,0-.5,1.31,2,2,0,0,0,.38,1.34,1.44,1.44,0,0,0,1.11.52,1.55,1.55,0,0,0,.85-.17l.06-1.24-.92,0,0-.47,1.41.06Z" transform="translate(-69.03 -66.31)"/><path class="cls-11" d="M110.72,101.16l-.49,0c.07-1.48.15-3,.22-4.44l.5,0C110.87,98.21,110.8,99.68,110.72,101.16Z" transform="translate(-69.03 -66.31)"/><path class="cls-11" d="M115.16,101.44l-.6,0c-.63-1.23-1.27-2.45-1.92-3.67a1.78,1.78,0,0,1-.12-.29h0a4.36,4.36,0,0,1,0,.61c-.07,1.07-.13,2.13-.19,3.2l-.49,0c.08-1.48.17-3,.26-4.43l.64,0c.64,1.2,1.26,2.41,1.88,3.61l.14.31h0a5,5,0,0,1,0-.65c.08-1,.15-2.08.23-3.12l.5,0Z" transform="translate(-69.03 -66.31)"/><path class="cls-11" d="M118.44,101.72l-2.2-.19.36-4.43,2.15.19,0,.47-1.65-.15-.12,1.47,1.51.14c0,.15,0,.31,0,.46l-1.51-.13c-.05.52-.09,1-.13,1.55l1.72.15Z" transform="translate(-69.03 -66.31)"/><path class="cls-11" d="M121.44,102l-2.2-.23.42-4.42,2.15.22c0,.16,0,.31,0,.47l-1.65-.17L120,99.36l1.51.15,0,.47-1.51-.16-.15,1.55,1.72.18C121.47,101.7,121.45,101.86,121.44,102Z" transform="translate(-69.03 -66.31)"/><path class="cls-11" d="M125.2,102.45l-.58-.07-.54-1.32a1.49,1.49,0,0,0-.16-.31.78.78,0,0,0-.16-.22.52.52,0,0,0-.19-.14.84.84,0,0,0-.24-.06l-.4,0-.21,1.88-.49-.06c.16-1.47.33-2.94.49-4.41l1.26.14a1.59,1.59,0,0,1,.51.14,1,1,0,0,1,.38.27,1,1,0,0,1,.22.4,1.11,1.11,0,0,1,0,.52,1.13,1.13,0,0,1-.11.42,1.24,1.24,0,0,1-.23.32,1.27,1.27,0,0,1-.33.22,2.09,2.09,0,0,1-.4.12h0a.76.76,0,0,1,.17.13l.13.17a1,1,0,0,1,.11.21q.06.12.12.27C124.79,101.51,125,102,125.2,102.45Zm-2-4.24-.18,1.6.67.08a1,1,0,0,0,.34,0,1,1,0,0,0,.3-.13,1,1,0,0,0,.21-.25,1,1,0,0,0,.1-.35.72.72,0,0,0-.15-.58.89.89,0,0,0-.61-.27Z" transform="translate(-69.03 -66.31)"/></svg>