<svg id="Layer_1" data-name="Layer 1" xmlns="http://www.w3.org/2000/svg" viewBox="0 0 61.94 68.38"><defs><style>.cls-1{fill:#505050;}.cls-1,.cls-2{stroke:#002050;stroke-miterlimit:10;stroke-width:2px;}.cls-2{fill:#0064b5;}.cls-3{font-size:5.17px;font-family:SegoeUI-Bold, Segoe UI;font-weight:700;}.cls-10,.cls-3,.cls-7,.cls-8{fill:#fff;}.cls-4{letter-spacing:0em;}.cls-5{letter-spacing:-0.01em;}.cls-6{letter-spacing:0.02em;}.cls-8{font-size:3.93px;font-family:SegoeUI, Segoe UI;letter-spacing:0.18em;}.cls-9{letter-spacing:0.14em;}.cls-10{stroke:#505050;stroke-width:1.4px;}.cls-11{fill:#3c3c3c;}</style></defs><path class="cls-1" d="M121.87,77.78V91.6a166.8,166.8,0,0,0-43.74,0V77.78a4.29,4.29,0,0,1,2.62-4L98,67.65a5.83,5.83,0,0,1,3.91,0l17.3,6.11A4.29,4.29,0,0,1,121.87,77.78Z" transform="translate(-69.03 -66.31)"/><path class="cls-2" d="M121.87,110.67v.5l-.06.44c-1,7.67-3.92,10.53-7.82,13.56a56.52,56.52,0,0,1-14,8.43,56.16,56.16,0,0,1-14-8.43c-3.9-3-6.86-5.89-7.83-13.56,0-.14,0-.29-.05-.44v-.49A149.46,149.46,0,0,1,121.87,110.67Z" transform="translate(-69.03 -66.31)"/><text class="cls-3" transform="translate(20.09 13.79) scale(0.93 1)">Mic<tspan class="cls-4" x="8.9" y="0">r</tspan><tspan x="10.94" y="0">os</tspan><tspan class="cls-5" x="16.37" y="0">o</tspan><tspan class="cls-6" x="19.45" y="0">f</tspan><tspan x="21.53" y="0">t</tspan></text><path class="cls-7" d="M91.27,116.63l-.52.06-.33-.75-1.13.13-.15.8-.52.06q.34-1.58.72-3.15l.55-.06Q90.6,115.18,91.27,116.63Zm-1-1.08c-.18-.39-.35-.78-.53-1.16a.85.85,0,0,1-.06-.19h0a.84.84,0,0,1,0,.19c-.09.42-.18.84-.26,1.26Z" transform="translate(-69.03 -66.31)"/><path class="cls-7" d="M91.76,116.47l-.05-.52a1,1,0,0,0,.17.1l.2.07.21,0h.19a.75.75,0,0,0,.43-.14.35.35,0,0,0,.13-.32.36.36,0,0,0-.07-.18.41.41,0,0,0-.15-.14l-.21-.11-.27-.1-.29-.15a.94.94,0,0,1-.23-.16.87.87,0,0,1-.17-.22.66.66,0,0,1-.08-.3.6.6,0,0,1,.06-.38.74.74,0,0,1,.22-.28.88.88,0,0,1,.33-.18,1.77,1.77,0,0,1,.4-.08,1.52,1.52,0,0,1,.68,0l0,.5a1,1,0,0,0-.65-.14l-.22,0a.51.51,0,0,0-.18.09.33.33,0,0,0-.13.13.41.41,0,0,0,0,.19.38.38,0,0,0,.06.17.4.4,0,0,0,.13.13.75.75,0,0,0,.2.1l.27.11c.1,0,.2.1.3.15a1.44,1.44,0,0,1,.25.18,1.08,1.08,0,0,1,.18.24.82.82,0,0,1,.08.3.8.8,0,0,1-.06.39,1,1,0,0,1-.22.28,1,1,0,0,1-.33.17,1.76,1.76,0,0,1-.4.07h-.18l-.21,0-.22,0Z" transform="translate(-69.03 -66.31)"/><path class="cls-7" d="M94.22,116.28l0-.52a.64.64,0,0,0,.16.11l.2.07.2,0h.19a.72.72,0,0,0,.44-.13.33.33,0,0,0,.13-.31.29.29,0,0,0-.06-.19.47.47,0,0,0-.14-.14,1,1,0,0,0-.21-.11,2.18,2.18,0,0,0-.27-.11l-.28-.16a1.06,1.06,0,0,1-.23-.17.92.92,0,0,1-.17-.22.94.94,0,0,1-.07-.3.78.78,0,0,1,.07-.38.75.75,0,0,1,.23-.27,1,1,0,0,1,.34-.18,1.78,1.78,0,0,1,.39-.07,1.55,1.55,0,0,1,.68.08l0,.5a1,1,0,0,0-.64-.16.78.78,0,0,0-.22,0l-.19.08a.44.44,0,0,0-.13.14.27.27,0,0,0,0,.18.35.35,0,0,0,0,.18.53.53,0,0,0,.13.13l.19.1.27.12a2.69,2.69,0,0,1,.29.16,1,1,0,0,1,.25.19.91.91,0,0,1,.17.23.74.74,0,0,1,.07.31.7.7,0,0,1-.07.39.73.73,0,0,1-.22.27,1.19,1.19,0,0,1-.34.16,1.67,1.67,0,0,1-.4.07H94.8l-.21,0-.21,0Z" transform="translate(-69.03 -66.31)"/><path class="cls-7" d="M98,116.29a1.25,1.25,0,0,1-1-.4,1.57,1.57,0,0,1-.41-1.09,1.69,1.69,0,0,1,.34-1.19,1.36,1.36,0,0,1,1-.46,1.24,1.24,0,0,1,1,.41,1.56,1.56,0,0,1,.38,1.11,1.72,1.72,0,0,1-.37,1.18A1.26,1.26,0,0,1,98,116.29Zm0-2.7a.8.8,0,0,0-.64.33,1.22,1.22,0,0,0-.23.83,1.27,1.27,0,0,0,.27.81.73.73,0,0,0,.63.29.76.76,0,0,0,.64-.3,1.24,1.24,0,0,0,.23-.83,1.31,1.31,0,0,0-.24-.84A.79.79,0,0,0,98,113.59Z" transform="translate(-69.03 -66.31)"/><path class="cls-7" d="M102.12,116.12a1.67,1.67,0,0,1-.81.17,1.3,1.3,0,0,1-1-.43,1.64,1.64,0,0,1-.37-1.1,1.62,1.62,0,0,1,.43-1.18,1.43,1.43,0,0,1,1.11-.43,1.58,1.58,0,0,1,.7.14v.5a1.16,1.16,0,0,0-.65-.2,1,1,0,0,0-.78.3,1.27,1.27,0,0,0-.3.85,1.16,1.16,0,0,0,.27.8.94.94,0,0,0,.7.31,1.28,1.28,0,0,0,.71-.19Z" transform="translate(-69.03 -66.31)"/><path class="cls-7" d="M103.38,116.29l-.48,0c0-1,.07-2,.1-3h.5Z" transform="translate(-69.03 -66.31)"/><path class="cls-7" d="M106.66,116.48l-.51,0-.21-.79-1.12-.06c-.1.25-.2.5-.29.75l-.52,0c.4-1,.82-2,1.24-3l.55,0C106.1,114.41,106.39,115.44,106.66,116.48Zm-.81-1.24-.33-1.24a1.52,1.52,0,0,1,0-.19h0a.56.56,0,0,1,0,.18c-.16.4-.31.8-.47,1.19Z" transform="translate(-69.03 -66.31)"/><path class="cls-7" d="M109.09,114.07l-.84-.08c-.07.87-.15,1.74-.23,2.61l-.47,0c.07-.86.15-1.73.22-2.6l-.84-.07,0-.42c.72.05,1.44.12,2.17.19Z" transform="translate(-69.03 -66.31)"/><path class="cls-7" d="M111.08,116.93l-1.59-.19.33-3,1.58.18-.06.43-1.08-.13c0,.28-.07.57-.1.85l1,.12-.05.43c-.33,0-.66-.08-1-.12l-.1.89,1.12.14Z" transform="translate(-69.03 -66.31)"/><text class="cls-8" transform="translate(20.66 18.71) scale(0.93 1)">CE<tspan class="cls-9" x="5.83" y="0">R</tspan><tspan x="8.71" y="0">TIFIED</tspan></text><polygon class="cls-7" points="26.39 52.66 27.27 55.56 30.13 55.56 27.82 57.36 28.7 60.26 26.39 58.47 24.09 60.26 24.97 57.36 22.66 55.56 25.51 55.56 26.39 52.66"/><polygon class="cls-7" points="35.56 52.7 36.44 55.58 39.27 55.58 36.98 57.37 37.86 60.26 35.56 58.47 33.26 60.26 34.14 57.37 31.84 55.58 34.68 55.58 35.56 52.7"/><path class="cls-10" d="M130.23,94.54q-1.15,7.53-2.33,15.06a2.6,2.6,0,0,1-2.92,2.31c-1-.19-2.07-.36-3.11-.53a142.25,142.25,0,0,0-43.74,0c-1,.16-2.08.33-3.11.52a2.6,2.6,0,0,1-2.92-2.31q-1.17-7.53-2.33-15.06a2.89,2.89,0,0,1,2.34-3.29c2-.36,4-.67,6-1a158.61,158.61,0,0,1,43.74,0c2,.28,4,.59,6,1A2.89,2.89,0,0,1,130.23,94.54Z" transform="translate(-69.03 -66.31)"/><path class="cls-11" d="M94.47,97.64l-.57,0c-.17-.4-.35-.81-.52-1.22l-1.87.1c-.12.42-.25.85-.36,1.27l-.58,0c.47-1.52,1-3,1.44-4.54l.55,0Q93.54,95.46,94.47,97.64ZM93.19,96c-.26-.62-.53-1.23-.79-1.85a1.38,1.38,0,0,1-.09-.3h0q0,.18-.06.3c-.2.64-.39,1.28-.59,1.92Z" transform="translate(-69.03 -66.31)"/><path class="cls-11" d="M98.1,93.23q-1.3,1.93-2.53,3.9l2.52,0v.47c-1.09,0-2.18,0-3.27.08v-.15c.8-1.3,1.63-2.6,2.47-3.89-.8,0-1.6,0-2.4.06l0-.47c1.08,0,2.15-.06,3.23-.07Z" transform="translate(-69.03 -66.31)"/><path class="cls-11" d="M102.1,95.75c0,1.25-.59,1.86-1.7,1.86s-1.59-.6-1.6-1.8l0-2.71h.53c0,.9,0,1.79,0,2.69s.39,1.36,1.15,1.36,1.1-.43,1.12-1.31,0-1.82,0-2.73h.53Z" transform="translate(-69.03 -66.31)"/><path class="cls-11" d="M106.3,97.67l-.61,0L105,96.37a2.2,2.2,0,0,0-.19-.3.91.91,0,0,0-.19-.2.45.45,0,0,0-.21-.12.92.92,0,0,0-.26,0h-.42c0,.63,0,1.26,0,1.89h-.52l.1-4.44,1.35,0a1.79,1.79,0,0,1,.54.1,1.18,1.18,0,0,1,.43.23,1,1,0,0,1,.27.38,1.26,1.26,0,0,1,.08.53,1.16,1.16,0,0,1-.08.42,1.11,1.11,0,0,1-.22.34,1.12,1.12,0,0,1-.32.24,1.34,1.34,0,0,1-.41.15v0a.62.62,0,0,1,.19.12,1.06,1.06,0,0,1,.15.15c.05.06.09.13.14.2l.15.26Zm-2.52-4.06c0,.54,0,1.08,0,1.61l.7,0a.88.88,0,0,0,.37,0,.73.73,0,0,0,.29-.15.79.79,0,0,0,.2-.27.78.78,0,0,0,.08-.35.7.7,0,0,0-.21-.57,1,1,0,0,0-.67-.22Z" transform="translate(-69.03 -66.31)"/><path class="cls-11" d="M109.22,97.83l-2.32-.13c.08-1.48.15-3,.22-4.44l2.29.13,0,.47-1.76-.1c0,.49-.05,1-.07,1.48.53,0,1.07.05,1.6.09l0,.46-1.6-.09c0,.52,0,1-.08,1.56l1.81.1Z" transform="translate(-69.03 -66.31)"/><path class="cls-11" d="M86.71,105.43l-.54,0-.57-1.19-1.77.2-.27,1.28-.54.07c.35-1.53.71-3.07,1.09-4.6l.51-.06Q85.69,103.3,86.71,105.43Zm-1.32-1.59L84.52,102a1.82,1.82,0,0,1-.1-.29h0a2,2,0,0,1,0,.3c-.15.65-.29,1.3-.43,2Z" transform="translate(-69.03 -66.31)"/><path class="cls-11" d="M87.8,105.32l-.48.05L86.9,101l.5,0C87.54,102.37,87.67,103.85,87.8,105.32Z" transform="translate(-69.03 -66.31)"/><path class="cls-11" d="M92.72,105l-2.2.13c-.11-1.47-.21-2.95-.32-4.43l2.18-.13,0,.47-1.67.1c0,.49.06,1,.1,1.47l1.52-.09,0,.47-1.52.09c0,.52.07,1,.1,1.55l1.72-.1Z" transform="translate(-69.03 -66.31)"/><path class="cls-11" d="M96.87,104.81h-.6c-.75-1.16-1.51-2.31-2.29-3.46a1.17,1.17,0,0,1-.15-.27h0a4.31,4.31,0,0,1,0,.61c0,1.07.1,2.14.14,3.2l-.48,0c-.07-1.48-.15-3-.22-4.44l.66,0c.76,1.13,1.51,2.27,2.24,3.41l.18.29h0a4.48,4.48,0,0,1,0-.65l-.09-3.13h.5C96.8,101.85,96.83,103.33,96.87,104.81Z" transform="translate(-69.03 -66.31)"/><path class="cls-11" d="M101.07,104.47a2.76,2.76,0,0,1-1.39.38,1.85,1.85,0,0,1-1.45-.61,2.34,2.34,0,0,1-.58-1.61,2.31,2.31,0,0,1,.6-1.7,2,2,0,0,1,1.59-.67,2.68,2.68,0,0,1,1.17.23v.58a2.14,2.14,0,0,0-1.23-.34,1.46,1.46,0,0,0-1.17.52,1.85,1.85,0,0,0-.44,1.33,1.9,1.9,0,0,0,.43,1.32,1.44,1.44,0,0,0,1.14.48,1.64,1.64,0,0,0,.84-.21v-1.24h-.93v-.47h1.43Z" transform="translate(-69.03 -66.31)"/><path class="cls-11" d="M102.52,104.79H102c0-1.48,0-3,.07-4.44h.5C102.57,101.83,102.55,103.31,102.52,104.79Z" transform="translate(-69.03 -66.31)"/><path class="cls-11" d="M107,105l-.59,0c-.66-1.21-1.34-2.42-2-3.62a1.75,1.75,0,0,1-.13-.28h0a3.39,3.39,0,0,1,0,.61c0,1.06-.07,2.13-.1,3.2h-.49l.12-4.44.65,0c.68,1.18,1.35,2.37,2,3.56l.16.31h0q0-.19,0-.66l.15-3.12.5,0C107.12,102,107,103.47,107,105Z" transform="translate(-69.03 -66.31)"/><path class="cls-11" d="M110.26,105.16c-.74-.06-1.47-.11-2.21-.15l.27-4.43,2.17.14,0,.47-1.67-.11-.09,1.47,1.52.11,0,.46-1.52-.1c0,.52-.07,1-.1,1.55l1.72.12Z" transform="translate(-69.03 -66.31)"/><path class="cls-11" d="M113.25,105.42l-2.2-.2.36-4.43,2.18.2,0,.47c-.55-.06-1.11-.11-1.66-.15,0,.49-.09,1-.13,1.47l1.53.14,0,.46-1.52-.14-.13,1.55,1.72.16Z" transform="translate(-69.03 -66.31)"/><path class="cls-11" d="M117,105.84l-.57-.07c-.18-.44-.36-.88-.55-1.32a3.26,3.26,0,0,0-.15-.32,1.28,1.28,0,0,0-.17-.22.64.64,0,0,0-.19-.13.84.84,0,0,0-.24-.06l-.4,0-.21,1.88-.48,0c.15-1.47.3-3,.46-4.42l1.27.14a1.9,1.9,0,0,1,.51.13,1.36,1.36,0,0,1,.39.27,1,1,0,0,1,.22.4,1.34,1.34,0,0,1-.08.94,1.09,1.09,0,0,1-.23.32,1,1,0,0,1-.32.22,1.39,1.39,0,0,1-.41.12v0a.81.81,0,0,1,.3.3,2,2,0,0,1,.12.21,2.86,2.86,0,0,0,.12.27C116.61,104.89,116.81,105.37,117,105.84ZM115,101.6l-.17,1.6.67.08a1,1,0,0,0,.34,0,.79.79,0,0,0,.51-.38,1,1,0,0,0,.1-.35.71.71,0,0,0-.15-.58.92.92,0,0,0-.62-.27Z" transform="translate(-69.03 -66.31)"/></svg>