<svg id="Layer_1" data-name="Layer 1" xmlns="http://www.w3.org/2000/svg" viewBox="0 0 63.79 69.48"><defs><style>.cls-1,.cls-5{fill:#fff;}.cls-1,.cls-2{stroke:#002050;}.cls-1,.cls-2,.cls-6{stroke-miterlimit:10;}.cls-1{stroke-width:2.07px;}.cls-2{fill:#0064b5;stroke-width:2.01px;}.cls-3{fill:#1a184f;}.cls-4{fill:#03013d;}.cls-6{fill:none;stroke:#464646;stroke-width:1.33px;}.cls-7{fill:#464646;}</style></defs><path class="cls-1" d="M98.42,51.72V65.51a191.17,191.17,0,0,0-46.84,0V51.72a4.28,4.28,0,0,1,2.8-4l18.53-6.09a6.64,6.64,0,0,1,4.18,0l18.53,6.09A4.28,4.28,0,0,1,98.42,51.72Z" transform="translate(-43.11 -40.26)"/><path class="cls-2" d="M98.42,66.38V87.52l-.06.41c-1,7.23-4.2,9.93-8.38,12.79a63,63,0,0,1-15,8,63,63,0,0,1-15-8c-4.18-2.86-7.35-5.56-8.38-12.79l-.06-.41v-21A181.78,181.78,0,0,1,98.42,66.38Z" transform="translate(-43.11 -40.26)"/><path class="cls-3" d="M67,54.35h-.87V51.84c0-.27,0-.57,0-.89h0a5.09,5.09,0,0,1-.12.55l-.92,2.85h-.72l-.94-2.82c0-.07-.06-.27-.12-.58h0c0,.41,0,.77,0,1.08v2.32h-.8V50.16h1.3l.8,2.48a4.34,4.34,0,0,1,.14.6h0c0-.23.11-.43.16-.6l.8-2.48H67Z" transform="translate(-43.11 -40.26)"/><path class="cls-3" d="M68.25,50.89a.49.49,0,0,1-.36-.14.45.45,0,0,1-.14-.34.42.42,0,0,1,.14-.34.48.48,0,0,1,.36-.13.48.48,0,0,1,.35.13.48.48,0,0,1,0,.68A.48.48,0,0,1,68.25,50.89Zm.42,3.46h-.86v-3h.86Z" transform="translate(-43.11 -40.26)"/><path class="cls-3" d="M71.52,54.24a1.59,1.59,0,0,1-.84.18A1.39,1.39,0,0,1,69.63,54a1.49,1.49,0,0,1-.4-1.07,1.66,1.66,0,0,1,.43-1.2,1.51,1.51,0,0,1,1.15-.44,1.3,1.3,0,0,1,.71.14v.78a1,1,0,0,0-.6-.22.75.75,0,0,0-.59.24.86.86,0,0,0-.22.64.88.88,0,0,0,.21.62.75.75,0,0,0,.57.23,1.12,1.12,0,0,0,.63-.22Z" transform="translate(-43.11 -40.26)"/><path class="cls-3" d="M73.91,52.19a.69.69,0,0,0-.36-.09.51.51,0,0,0-.44.22,1,1,0,0,0-.16.6v1.43h-.86v-3H73v.55h0a.76.76,0,0,1,.74-.6.58.58,0,0,1,.21,0Z" transform="translate(-43.11 -40.26)"/><path class="cls-3" d="M75.63,54.42a1.43,1.43,0,0,1-1.1-.42,1.82,1.82,0,0,1,0-2.29,1.52,1.52,0,0,1,1.13-.42,1.42,1.42,0,0,1,1.09.42,1.53,1.53,0,0,1,.4,1.1A1.66,1.66,0,0,1,76.75,54,1.46,1.46,0,0,1,75.63,54.42Zm0-2.43a.59.59,0,0,0-.48.23,1,1,0,0,0-.17.63q0,.87.66.87c.41,0,.62-.3.62-.89S76.07,52,75.65,52Z" transform="translate(-43.11 -40.26)"/><path class="cls-3" d="M77.53,54.27v-.75a2.42,2.42,0,0,0,.43.21,1.46,1.46,0,0,0,.4.07.88.88,0,0,0,.36-.07.23.23,0,0,0,.13-.21.18.18,0,0,0-.06-.14.58.58,0,0,0-.15-.11l-.21-.07-.21-.08-.3-.15a.91.91,0,0,1-.21-.18.65.65,0,0,1-.13-.23,1,1,0,0,1,0-.32.83.83,0,0,1,.11-.43.86.86,0,0,1,.27-.3,1.15,1.15,0,0,1,.39-.17,1.75,1.75,0,0,1,.46-.05l.38,0a2.49,2.49,0,0,1,.37.09v.71a1.39,1.39,0,0,0-.35-.16,1.57,1.57,0,0,0-.37-.05l-.16,0-.13,0a.18.18,0,0,0-.09.08.18.18,0,0,0,0,.11.24.24,0,0,0,.05.14.49.49,0,0,0,.13.1l.17.07.2.07.31.14a1.08,1.08,0,0,1,.24.18,1,1,0,0,1,.15.24,1,1,0,0,1,.05.33.9.9,0,0,1-.39.76,1.6,1.6,0,0,1-.42.17,2.46,2.46,0,0,1-1.34-.1Z" transform="translate(-43.11 -40.26)"/><path class="cls-3" d="M81.52,54.42A1.47,1.47,0,0,1,80.41,54a1.61,1.61,0,0,1-.4-1.13,1.54,1.54,0,0,1,.42-1.16,1.51,1.51,0,0,1,1.12-.42,1.45,1.45,0,0,1,1.1.42,1.52,1.52,0,0,1,.39,1.1A1.62,1.62,0,0,1,82.63,54,1.44,1.44,0,0,1,81.52,54.42Zm0-2.43a.56.56,0,0,0-.48.23,1,1,0,0,0-.17.63c0,.58.22.87.65.87s.62-.3.62-.89S82,52,81.54,52Z" transform="translate(-43.11 -40.26)"/><path class="cls-3" d="M85.35,50.63a.82.82,0,0,0-.33-.07c-.27,0-.41.16-.41.48v.32h.64V52h-.64v2.31h-.86V52h-.47v-.68h.47V51a1.12,1.12,0,0,1,.31-.83,1.18,1.18,0,0,1,.85-.31,1.42,1.42,0,0,1,.44.06Z" transform="translate(-43.11 -40.26)"/><path class="cls-3" d="M87.46,54.31a1.09,1.09,0,0,1-.57.11c-.61,0-.92-.33-.92-1V52h-.45v-.68H86v-.65l.86-.26v.91h.63V52h-.63v1.21c0,.31.12.47.35.47a.51.51,0,0,0,.28-.09Z" transform="translate(-43.11 -40.26)"/><path class="cls-4" d="M65.26,58.76a1.37,1.37,0,0,1-.7.16,1.1,1.1,0,0,1-.87-.37,1.41,1.41,0,0,1-.32-1,1.47,1.47,0,0,1,.36-1,1.24,1.24,0,0,1,.93-.39,1.34,1.34,0,0,1,.6.11v.44a1,1,0,0,0-.55-.16.87.87,0,0,0-.66.27,1.05,1.05,0,0,0-.25.74,1,1,0,0,0,.23.7.79.79,0,0,0,.62.26,1,1,0,0,0,.61-.18Z" transform="translate(-43.11 -40.26)"/><path class="cls-4" d="M68,58.87h-1.4V56.21h1.34v.38H67v.75h.86v.37H67v.79h1Z" transform="translate(-43.11 -40.26)"/><path class="cls-4" d="M71.21,58.87h-.48l-.4-.71-.1-.17-.11-.11a.41.41,0,0,0-.11-.07l-.15,0H69.7v1.08h-.41V56.21h.82a1.13,1.13,0,0,1,.32,0,.79.79,0,0,1,.26.13.66.66,0,0,1,.17.23.85.85,0,0,1,0,.57.7.7,0,0,1-.11.21,1.29,1.29,0,0,1-.17.16l-.23.1h0l.11.09.1.11.09.11.1.16Zm-1.51-2.3v.87H70a.58.58,0,0,0,.18,0,.42.42,0,0,0,.14-.09.34.34,0,0,0,.09-.14.58.58,0,0,0,0-.19.41.41,0,0,0-.11-.3.46.46,0,0,0-.32-.11Z" transform="translate(-43.11 -40.26)"/><path class="cls-4" d="M73.87,56.59h-.72v2.28h-.41V56.59H72v-.38h1.84Z" transform="translate(-43.11 -40.26)"/><path class="cls-4" d="M75.51,58.87h-.42V56.21h.42Z" transform="translate(-43.11 -40.26)"/><path class="cls-4" d="M78.33,56.59h-.94v.8h.86v.37h-.86v1.11H77V56.21h1.35Z" transform="translate(-43.11 -40.26)"/><path class="cls-4" d="M80.05,58.87h-.43V56.21h.43Z" transform="translate(-43.11 -40.26)"/><path class="cls-4" d="M82.91,58.87H81.52V56.21h1.34v.38h-.93v.75h.86v.37h-.86v.79h1Z" transform="translate(-43.11 -40.26)"/><path class="cls-4" d="M84.21,58.87V56.21h.72c.92,0,1.38.43,1.38,1.3a1.34,1.34,0,0,1-.38,1,1.42,1.42,0,0,1-1,.37Zm.41-2.28V58.5H85a.86.86,0,0,0,.68-.26,1,1,0,0,0,.24-.72.81.81,0,0,0-.9-.93Z" transform="translate(-43.11 -40.26)"/><path class="cls-5" d="M103.66,64.74a224.43,224.43,0,0,0-57.32,0,2.78,2.78,0,0,0-2.54,3q1,7.36,2.09,14.72a2.72,2.72,0,0,0,3,2.29,204,204,0,0,1,52.14,0,2.72,2.72,0,0,0,3-2.29q1-7.36,2.09-14.72A2.78,2.78,0,0,0,103.66,64.74Z" transform="translate(-43.11 -40.26)"/><path class="cls-6" d="M103.66,64.74a224.43,224.43,0,0,0-57.32,0,2.78,2.78,0,0,0-2.54,3q1,7.36,2.09,14.72a2.72,2.72,0,0,0,3,2.29,204,204,0,0,1,52.14,0,2.72,2.72,0,0,0,3-2.29q1-7.36,2.09-14.72A2.78,2.78,0,0,0,103.66,64.74Z" transform="translate(-43.11 -40.26)"/><path class="cls-7" d="M66.05,71.71l-.75,0-.41-1-1.62.06c-.11.36-.21.72-.31,1.08l-.75,0c.45-1.41.91-2.83,1.37-4.25l.78,0C64.93,69,65.49,70.33,66.05,71.71Zm-1.36-1.59-.64-1.65c0-.06,0-.14-.07-.26h0a1.2,1.2,0,0,1,0,.26c-.16.57-.33,1.13-.5,1.7Z" transform="translate(-43.11 -40.26)"/><path class="cls-7" d="M69.81,67.72c-.74,1.11-1.47,2.23-2.19,3.35l2.23,0c0,.19,0,.39,0,.58-1,0-2.12.05-3.17.09,0-.11,0-.22,0-.32.72-1.12,1.44-2.23,2.18-3.35l-2.11.06c0-.2,0-.39,0-.59l3.08-.08Z" transform="translate(-43.11 -40.26)"/><path class="cls-7" d="M74,69.85c0,1.18-.54,1.77-1.63,1.78s-1.58-.54-1.6-1.67c0-.86,0-1.71,0-2.57h.7l0,2.42c0,.83.34,1.23,1,1.22s.9-.4.89-1.2,0-1.64,0-2.46H74C74,68.19,74,69,74,69.85Z" transform="translate(-43.11 -40.26)"/><path class="cls-7" d="M78.54,71.54h-.79l-.66-1.12a1.59,1.59,0,0,0-.17-.27,1.49,1.49,0,0,0-.17-.18.5.5,0,0,0-.19-.1.88.88,0,0,0-.24,0h-.27v1.7h-.68c0-1.4,0-2.8,0-4.19h1.38a1.9,1.9,0,0,1,.54.07,1,1,0,0,1,.42.21A.9.9,0,0,1,78,68a1.15,1.15,0,0,1,.1.5,1.1,1.1,0,0,1-.07.41,1.06,1.06,0,0,1-.18.33,1.13,1.13,0,0,1-.29.24,1.61,1.61,0,0,1-.38.16h0a1.56,1.56,0,0,1,.19.14l.16.16.15.19.16.24ZM76,67.91v1.36h.58a.71.71,0,0,0,.29,0,.59.59,0,0,0,.23-.14.63.63,0,0,0,.16-.23.94.94,0,0,0,0-.3.61.61,0,0,0-.18-.47.82.82,0,0,0-.55-.17Z" transform="translate(-43.11 -40.26)"/><path class="cls-7" d="M81.68,71.58l-2.3,0c0-1.4,0-2.79,0-4.19l2.24,0c0,.2,0,.39,0,.59L80.1,68c0,.39,0,.79,0,1.18l1.42,0c0,.2,0,.4,0,.59l-1.42,0c0,.41,0,.83,0,1.24l1.63,0C81.69,71.19,81.69,71.39,81.68,71.58Z" transform="translate(-43.11 -40.26)"/><path class="cls-7" d="M88.11,71.75l-.75,0L87,70.65l-1.62-.05L85,71.65h-.75c.55-1.39,1.11-2.77,1.67-4.15l.78,0C87.19,68.92,87.65,70.34,88.11,71.75Zm-1.24-1.67c-.18-.57-.35-1.13-.52-1.69a1.19,1.19,0,0,1,0-.27h0a1.83,1.83,0,0,1-.07.26c-.21.55-.41,1.1-.62,1.66Z" transform="translate(-43.11 -40.26)"/><path class="cls-7" d="M89.73,71.82l-.7,0c0-1.4.11-2.79.17-4.19l.71,0Z" transform="translate(-43.11 -40.26)"/><path class="cls-7" d="M54.48,75.35,53,75.46c0,.42.06.84.1,1.26l1.39-.1c0,.19,0,.39,0,.58l-1.4.1c0,.59.1,1.17.14,1.75l-.67,0c-.11-1.39-.23-2.78-.34-4.18l2.21-.16Z" transform="translate(-43.11 -40.26)"/><path class="cls-7" d="M58.8,77c.07,1.18-.43,1.79-1.5,1.86s-1.57-.47-1.66-1.6l-.18-2.56.68,0c.06.8.11,1.61.17,2.41s.39,1.21,1,1.18.87-.45.82-1.24L58,74.54l.67,0Z" transform="translate(-43.11 -40.26)"/><path class="cls-7" d="M63.61,78.45l-.73,0-2.09-3a1.41,1.41,0,0,1-.13-.24h0a3.75,3.75,0,0,1,0,.58l.15,2.74-.64,0L60,74.43l.79,0c.68,1,1.36,1.94,2,2.91.09.12.14.21.17.25h0A4.17,4.17,0,0,1,62.9,77c0-.9-.09-1.8-.13-2.7l.65,0C63.48,75.66,63.54,77.06,63.61,78.45Z" transform="translate(-43.11 -40.26)"/><path class="cls-7" d="M65,78.4c-.06-1.4-.11-2.79-.17-4.19l1.18,0c1.51,0,2.28.62,2.31,2a2,2,0,0,1-.57,1.57,2.29,2.29,0,0,1-1.64.64Zm.53-3.62c0,1,.07,2,.11,3l.53,0a1.44,1.44,0,0,0,1.09-.44,1.59,1.59,0,0,0,.36-1.15A1.3,1.3,0,0,0,66,74.76Z" transform="translate(-43.11 -40.26)"/><path class="cls-7" d="M72.62,78.21h-.73c-.12-.35-.25-.71-.38-1.06l-1.58,0-.33,1.07-.73,0c.47-1.41.94-2.82,1.42-4.22l.76,0C71.58,75.43,72.11,76.82,72.62,78.21ZM71.33,76.6l-.6-1.67c0-.05,0-.14-.06-.26h0a1.46,1.46,0,0,1,0,.27c-.17.56-.35,1.12-.52,1.68Z" transform="translate(-43.11 -40.26)"/><path class="cls-7" d="M77.84,78.19h-.66V75.48c0-.22,0-.5,0-.82h0a1.9,1.9,0,0,1-.11.4c-.4,1-.81,2.09-1.2,3.13h-.46l-1.23-3.1a2.42,2.42,0,0,1-.11-.42h0c0,.17,0,.44,0,.82,0,.9,0,1.81,0,2.71h-.62c0-1.39,0-2.79,0-4.19h1q.55,1.4,1.08,2.79a3.73,3.73,0,0,1,.16.48h0c.06-.22.12-.38.16-.49.36-.93.72-1.86,1.09-2.78h.92C77.85,75.4,77.85,76.8,77.84,78.19Z" transform="translate(-43.11 -40.26)"/><path class="cls-7" d="M81.43,78.23l-2.26,0c0-1.39,0-2.79,0-4.19l2.2,0c0,.19,0,.39,0,.59l-1.52,0c0,.39,0,.79,0,1.18l1.39,0c0,.2,0,.4,0,.59l-1.39,0c0,.42,0,.83,0,1.24l1.59,0C81.44,77.84,81.43,78,81.43,78.23Z" transform="translate(-43.11 -40.26)"/><path class="cls-7" d="M85.9,78.34l-.73,0c-.61-1-1.23-2.08-1.85-3.12,0-.08-.08-.17-.12-.25h0c0,.09,0,.28,0,.58,0,.91,0,1.83-.07,2.74h-.64l.09-4.19.78,0c.61,1,1.21,2,1.8,3,.07.13.12.21.14.26h0a4.43,4.43,0,0,1,0-.56c0-.9.06-1.8.08-2.7l.65,0C86,75.54,85.94,76.94,85.9,78.34Z" transform="translate(-43.11 -40.26)"/><path class="cls-7" d="M90,74.88l-1.18,0c0,1.2-.1,2.4-.15,3.6l-.66,0c0-1.2.09-2.4.14-3.6l-1.17,0c0-.2,0-.4,0-.59l3,.11C90,74.49,90,74.69,90,74.88Z" transform="translate(-43.11 -40.26)"/><path class="cls-7" d="M93.64,78.67l-.73,0-.3-1.08L91,77.47c-.14.35-.27.7-.4,1l-.73,0c.56-1.37,1.14-2.74,1.72-4.11l.76,0C92.8,75.83,93.23,77.25,93.64,78.67ZM92.46,77c-.16-.57-.32-1.13-.47-1.7A1.09,1.09,0,0,1,92,75h0a1.2,1.2,0,0,1-.07.26c-.21.54-.43,1.09-.64,1.64Z" transform="translate(-43.11 -40.26)"/><path class="cls-7" d="M96.77,78.86l-2.23-.14c.09-1.39.17-2.79.26-4.18l.68,0-.24,3.59,1.57.1Z" transform="translate(-43.11 -40.26)"/><path class="cls-7" d="M97.52,78.74c0-.24,0-.47,0-.71a1.2,1.2,0,0,0,.21.17l.26.14a1.61,1.61,0,0,0,.29.09,1.32,1.32,0,0,0,.26,0,1.18,1.18,0,0,0,.64-.1.53.53,0,0,0,.24-.41.44.44,0,0,0,0-.26.73.73,0,0,0-.18-.22A2.26,2.26,0,0,0,99,77.3c-.1-.07-.22-.13-.34-.2s-.26-.17-.37-.26a1.94,1.94,0,0,1-.29-.28,1.06,1.06,0,0,1-.18-.33,1,1,0,0,1,0-.42.94.94,0,0,1,.17-.51,1,1,0,0,1,.36-.33,1.43,1.43,0,0,1,.5-.18,2.63,2.63,0,0,1,.56,0,2.15,2.15,0,0,1,.92.22c0,.23,0,.46,0,.69a1.48,1.48,0,0,0-.87-.33H99a.77.77,0,0,0-.27.08.65.65,0,0,0-.21.16.43.43,0,0,0-.09.24.49.49,0,0,0,0,.25.55.55,0,0,0,.15.2,2,2,0,0,0,.26.18c.1.06.21.13.35.2l.38.27a1.77,1.77,0,0,1,.31.3,1.58,1.58,0,0,1,.2.36,1,1,0,0,1,0,.42,1,1,0,0,1-.16.53,1.06,1.06,0,0,1-.37.33,1.29,1.29,0,0,1-.49.16,2.24,2.24,0,0,1-.58,0l-.25,0L98,79l-.29-.09A1,1,0,0,1,97.52,78.74Z" transform="translate(-43.11 -40.26)"/><polygon class="cls-5" points="31.89 49.19 33.01 52.62 36.62 52.62 33.7 54.74 34.81 58.17 31.89 56.05 28.98 58.17 30.09 54.74 27.17 52.62 30.78 52.62 31.89 49.19"/></svg>